<?xml version="1.0" encoding="UTF-8"?>
<svg width="816px" height="569px" viewBox="0 0 816 569" version="1.1" xmlns="http://www.w3.org/2000/svg" xmlns:xlink="http://www.w3.org/1999/xlink">
    <title>app_icon_1024x1024 copy 3</title>
    <g id="app_icon_1024x1024-copy-3" stroke="none" stroke-width="1" fill="none" fill-rule="evenodd">
        <path d="M122.140826,155 C144.697238,155 171.712476,177.623432 203.186539,222.870296 L203.186539,222.870296 L211.841907,221.15206 C215.513881,211.988139 220.23499,205.974315 226.005235,203.110589 C234.660603,198.815001 247.250228,201.392354 261.413557,212.560884 C262.98726,220.292943 259.053002,228.025002 259.053002,239.193531 C266.134666,237.475296 270.855776,240.052649 271.642628,243.48912 C272.429479,246.92559 272.429479,254.657649 266.134666,262.389708 C259.839854,270.121767 260.126464,267.971483 255.905596,268.403532 C251.684728,268.835581 247.957733,268.625982 240.168564,264.107944 C232.379395,259.589905 218.923571,263.248826 217.349868,259.812355 C217.349868,275.849218 213.41561,286.445003 205.547094,291.599709 C205.022526,320.236964 203.186539,341.428534 200.039133,355.174416 C196.891727,368.920299 196.367159,382.093436 198.46543,394.693829 C207.948429,419.092401 214.767809,444.293186 218.923571,470.296184 C225.157214,509.30068 223.486651,497.787949 219.77333,522.702361 C217.297783,539.311969 214.653975,549.907754 211.841907,554.489715 C201.87512,555.06246 196.367159,554.489715 195.318024,552.77148 C194.268888,551.053244 192.695185,542.462068 190.596914,526.99795 L190.596914,526.99795 L198.46543,520.125008 L207.120797,497.787949 C187.711792,466.286968 175.122166,428.772163 169.351921,385.243535 C171.450192,367.488436 174.335315,352.597063 178.007289,340.569416 L178.007289,340.569416 L169.351921,340.569416 C167.062898,346.103473 165.054164,351.025468 163.325718,355.335401 L162.899446,356.400133 C159.325768,365.34197 157.017767,371.519967 155.975444,374.934123 C155.670856,375.931808 155.348546,376.894143 155.015372,377.844041 L154.763562,378.55449 C154.594474,379.027046 154.423099,379.497924 154.250295,379.969988 L153.990124,380.679333 C151.988903,386.129956 149.855366,391.926885 148.89378,402.425888 C148.616128,405.457411 152.194138,407.492766 152.828038,411.876182 C153.461937,416.259598 154.503568,440.221282 158.335999,467.718831 C160.827079,485.592237 161.741979,487.489759 162.50943,488.280079 L162.579894,488.35032 L162.579894,488.35032 L162.75403,488.515461 L162.75403,488.515461 L162.823529,488.584154 C163.125133,488.891661 163.434797,489.351413 163.84396,490.915008 C165.417663,496.928831 170.376799,507.129985 165.417663,520.125008 C166.991366,531.007165 161.221121,535.016381 148.106928,532.152656 C145.48409,545.898538 145.48409,553.057852 148.106928,553.630597 C157.549147,552.77148 168.56507,550.194127 176.433585,554.489715 C183.594819,558.399183 178.372751,563.731873 176.782923,565.306617 L176.672042,565.416314 C176.568287,565.518981 176.486632,565.600326 176.433585,565.658245 C176.024423,566.104986 163.062144,566.551727 149.827527,566.636072 L148.299946,566.644175 C136.589939,566.693653 125.03644,566.448633 122.140826,565.658245 C115.846013,563.940009 122.140826,551.053244 126.861935,552.77148 C111.911755,497.787949 122.140826,457.409419 117.419716,467.718831 C114.27231,474.591772 90.6667624,492.919615 46.6030736,522.702361 C46.2640769,531.631228 47.5754962,538.790542 50.5373315,544.180303 C52.458522,547.676364 56.3966304,551.040561 60.2480368,554.219484 L60.9686459,554.813347 C65.7590853,558.757791 70.2086212,562.407529 70.2086212,565.658245 C70.2086212,571.672068 50.5373315,568.235598 46.6030736,565.658245 C42.6688156,563.080892 33.3343942,555.830145 28.505487,550.194127 C25.2862156,546.436781 21.0896738,540.422957 15.9158617,532.152656 C15.3912939,519.552263 20.3746873,514.970302 30.8660418,518.406773 C57.6189958,481.464713 53.6847378,487.478537 91.453614,450.536477 C74.7509008,424.762947 76.5034339,412.7353 71.7823243,407.580594 C64.5218302,403.285006 63.7349786,403.285006 59.9795505,399.848535 C42.6688156,386.102652 66.2743632,322.527945 61.5532537,335.41471 C56.8321442,348.301475 4.11308784,315.655004 0.178829906,272.69912 C-2.44400872,244.061865 23.7843775,221.724805 78.8639886,205.687942 C67.3234987,176.477942 81.7491111,159.581961 122.140826,155 Z M110.338052,410.157947 C107.485563,411.582577 122.140826,434.539167 121.353974,456.550301 C123.442365,459.245074 123.714529,444.522654 133.9436,429.917653 C127.648787,429.917653 116.632865,418.749124 110.338052,410.157947 Z M141.025264,345.724122 C138.664709,343.146769 134.846486,344.890078 129.22249,348.301475 C123.598495,351.712872 111.911755,374.934123 111.911755,376.652358 C127.648787,374.934123 131.583045,385.243535 134.730451,382.666182 C134.730451,371.497652 136.304155,368.061181 137.091006,361.18824 C137.877858,354.315299 143.385819,348.301475 141.025264,345.724122 Z" id="Combined-Shape-Copy-2" fill="#449C1A"></path>
        <path d="M446.129493,94.5023646 C452.145682,85.3839822 470.712137,77.2081873 483.10495,88.4876636 C491.366825,96.0073145 494.251435,101.162772 491.75878,112.546467 C498.329981,113.931663 503.559458,119.946364 504.34617,124.575869 C505.132881,129.205375 502.530003,141.243509 499.625899,142.619972 C496.721794,143.996435 489.67615,157.227103 461.077018,144.338458 C461.005499,144.364496 460.934521,144.389942 460.863642,144.415926 L460.704144,144.475774 C460.544438,144.537483 460.383547,144.606205 460.216422,144.694808 L460.104027,144.756964 C458.780681,145.519769 457.01234,147.658261 452.423187,157.227103 C454.521086,183.004393 453.996611,202.177105 450.849764,216.497822 C450.849764,216.497822 467.963603,234.025989 478.662184,247.097279 C479.264652,247.833361 480.085619,248.889737 481.071184,250.199151 L481.503489,250.775624 C484.819004,255.212422 489.755541,262.164239 494.523164,269.397544 C496.897013,271.595822 498.998971,274.088016 500.812222,276.664746 C507.103142,285.60449 512.688394,302.36752 511.326704,304.598367 C509.658875,307.33076 506.805427,302.502915 504.313925,297.338554 L504.033497,296.75286 C501.943136,292.355195 500.1558,287.911449 499.618727,287.843135 C499.081655,287.774822 500.848928,292.954332 502.495051,298.498027 L502.713603,299.238916 C502.786073,299.486312 502.85809,299.733999 502.929442,299.981548 L503.14129,300.723352 C504.851603,306.771031 506.034823,312.478459 503.559458,311.540503 C496.756557,308.962774 491.296683,280.365054 491.044341,283.870547 C490.972031,284.87506 490.891532,285.940067 490.796807,287.01992 L490.738216,287.669248 C490.234925,293.08908 489.345769,298.651858 487.316015,298.651858 C483.382456,298.651858 482.32121,274.329106 481.02232,273.733812 C472.994075,270.054388 463.784134,262.057089 445.342781,244.85284 C440.098035,272.921445 433.950422,286.141697 433.950422,308.377154 L433.950422,308.377154 L435.132662,309.81979 C435.724784,310.540685 436.31828,311.260982 436.912579,311.980838 L438.102076,313.42001 L438.102076,313.42001 L439.292693,314.858288 C439.68964,315.337597 440.086603,315.816803 440.483414,316.295955 L441.673219,317.73329 C442.664058,318.931011 443.652884,320.128679 444.637044,321.327029 L445.815628,322.765423 C461.495684,341.949618 475.709858,361.383238 477.597967,384.067253 C477.597967,426.17016 474.451119,415 469.730848,470.850795 C465.010577,526.70159 464.608299,535.998764 472.877696,546.464179 C476.409417,550.933783 482.807811,552.369231 489.592925,553.617902 L490.588341,553.799632 C499.400484,555.398971 508.656695,556.918302 513,564.508282 C503.265914,569.415138 450.063052,569.66374 442.195933,561.930553 C434.328815,554.197366 444.965339,550.409502 445.342781,535.29402 C445.720223,520.178537 443.017056,502.447097 443.769357,469.991552 C444.521658,437.536008 438.262374,439.918048 448.489628,399.533627 C441.146984,399.533627 434.066578,392.659683 427.248408,378.911795 C430.91973,393.232512 429.608544,405.261914 423.314849,415 C413.874307,429.607132 361.164613,470.850795 325.762579,476.865496 C329.433901,493.477528 330.760356,492.857823 327.613509,508.324197 C325.7254,517.604021 324.303822,519.476861 322.109219,520.851403 L321.887136,520.987452 C320.46371,521.841817 318.713641,522.58868 316.322037,524.983104 C310.264186,514.113376 315.535325,493.191113 310.815054,476.006253 C330.745088,450.228964 360.377901,424.738088 399.713493,399.533627 C397.559426,397.573075 371.531037,357.104519 369.818443,352.275262 C368.401236,348.278953 367.092288,344.763062 365.891599,341.490832 C362.322566,345.07204 359.012251,347.475805 355.938199,348.541133 C353.943853,356.166451 348.610823,362.621438 339.858614,367.07825 C330.440205,371.874305 317.44648,374.078297 310.406662,370.100707 C303.366845,366.123118 336.639366,359.952704 336.169718,356.550212 C335.951497,354.969256 331.0566,355.011801 325.975028,354.721385 L325.311525,354.681456 C319.669021,354.323273 314.037018,353.451251 314.53456,349.399093 C315.0328,345.34126 318.857348,344.860365 323.429906,344.843613 L323.982038,344.843631 C324.3523,344.844863 324.726689,344.848268 325.103885,344.852254 L325.715438,344.858947 C329.39693,344.899149 333.27535,344.913209 336.148754,343.45001 C338.246262,342.381914 340.458981,340.646884 342.625491,338.842786 L343.144484,338.408782 C343.244088,338.325183 343.343566,338.241538 343.442902,338.157907 C343.93302,330.022661 349.705681,318.405317 357.337428,306.677768 C356.968853,303.10634 356.670957,299.157647 356.444341,294.705982 C343.347746,302.105878 336.267339,297.809663 331.269562,296.424468 C319.86222,293.262782 298.227664,277.187832 310.815054,206.729906 C313.700458,190.578857 320.738478,183.82954 332.276919,176.955596 C326.92564,174.870064 322.364146,160.629979 332.5914,144.304362 C342.818655,127.978745 360.100395,125.101822 369.818443,126.820308 C379.536491,128.538794 383.454217,131.116523 386.616898,138.323757 C393.97481,141.760729 400.777711,130.863349 420.954713,133.168299 C426.977932,130.863349 430.402286,126.567134 435.393033,118.561168 C439.539192,111.910058 440.540604,108.043424 441.630956,104.368 L441.814059,103.756756 C442.646719,101.01012 443.63046,98.2900004 446.129493,94.5023646 Z" id="Combined-Shape" fill="#449C1A"></path>
        <path d="M654.341632,0 C661.97871,0 675.120254,0.767060413 680.644146,5.48859206 C687.067383,10.9788372 686.801551,20.6026557 686.630947,30.1591213 L686.614962,31.0835893 C686.597191,32.1615609 686.583423,33.2369466 686.583423,34.3037004 C686.583423,35.5727806 690.951984,39.9310902 690.825764,41.1644405 C690.497064,44.3763164 687.938838,42.7717133 686.583423,45.7382672 C685.569928,47.9564728 685.200337,50.6828353 684.889979,53.4497243 L684.767609,54.5575329 C684.706618,55.1114095 684.644878,55.664413 684.577711,56.2128026 C684.100345,60.1103103 683.348882,63.7747547 680.644146,65.8631047 C677.603799,68.2105824 672.507211,68.8550081 667.318415,68.9347504 L667.318238,83.1917073 C677.406361,87.3661224 684.68469,97.1068725 685.158557,108.732193 C685.159644,108.758864 685.160694,108.785538 685.161707,108.812212 C685.381247,114.591663 685.493868,119.268531 685.499569,122.842816 L685.499223,123.566591 C685.489241,127.342816 685.349074,129.776538 685.078723,130.867757 C684.697372,132.407001 684.307499,133.665076 683.943105,134.920005 L683.807717,135.391 L683.807717,135.391 L683.675117,135.864957 C682.95421,138.485845 682.377843,141.389024 682.244319,147.013779 C682.103972,152.92593 682.627699,159.642102 683.815498,167.162295 C722.571265,207.029525 741.949149,228.573268 741.949149,231.793524 C741.949149,232.988988 752.350237,231.793524 757.063776,236.085051 C761.777316,240.376577 774.346754,255.800529 768.062035,257.51714 C766.069605,257.64519 764.412255,257.53799 763.007212,257.249614 C758.636594,256.352572 756.707357,253.702427 754.728084,250.926781 L754.330825,250.37046 C752.799778,248.235182 751.141695,246.089914 748.233868,244.668104 C747.44212,244.280971 748.014195,247.197541 748.571881,250.350265 L748.679271,250.962595 C749.264854,254.337567 749.733373,257.75588 748.422288,257.51714 C747.995875,257.439493 747.484887,257.393563 746.921226,257.270202 L746.731432,257.226064 C744.463487,256.666287 741.431177,254.713106 739.592379,244.668104 C735.173505,242.000916 724.698387,238.270539 711.311144,230.935219 C705.936008,227.990002 696.247067,219.27811 682.244319,204.799542 L682.244319,237.091586 L682.244319,237.091586 C682.244319,242.25172 682.768045,249.930697 683.815498,260.128516 C712.62046,291.592433 730.427164,325.062702 737.23561,360.539322 C745.185779,423.710594 769.071607,499.969084 766.745864,508.414482 L766.711,508.514 L766.833532,508.479569 C774.689344,506.268111 814.474344,499.104654 815.794597,511.601058 C817.163845,524.561214 811.920526,524.806131 793.01249,527.050554 C789.723312,527.440986 782.952941,531.933326 776.06168,536.129229 L775.121529,536.699147 C766.659106,541.804437 758.244659,546.162108 756.089766,541.641744 C755.952021,541.352793 755.819493,541.061437 755.691033,540.764741 L755.563887,540.466157 C755.396054,540.065381 755.234774,539.653373 755.077324,539.223174 L754.959913,538.897005 C753.363945,534.389785 752.09897,527.788696 748.233868,511.601058 C726.237351,474.693929 711.341151,418.132428 710.319847,382.284873 C696.384936,366.547459 691.502948,350.065388 679.887549,333.073552 C678.175785,330.569461 677.837146,344.543167 677.078261,359.253859 L676.990458,360.921523 C676.317024,373.439928 675.291848,386.061417 672.81724,389.151316 C669.881699,392.816755 637.465696,429.203748 624.896258,517.609195 C628.038618,535.633607 669.674881,547.649882 661.818982,557.949545 C653.963083,568.249209 587.311323,537.17271 589.544714,521.900722 C590.999438,511.953275 603.685332,494.434952 608.912306,467.503241 C616.254769,388.005092 639.092543,390.994451 638.251286,368.26407 C631.44284,353.386778 626.205575,331.070839 622.539488,301.316255 C616.778496,297.31083 612.850547,292.160998 610.75564,285.866759 C607.613281,276.425401 612.093999,264.570859 611.872905,260.443323 C611.031702,256.504544 610.291027,252.531393 609.643378,248.533868 C608.765481,251.27071 606.199047,253.251157 603.170054,253.251157 L589.15192,253.251157 L589.15192,253.251157 C586.717633,253.251157 584.001265,252.908723 581.002816,252.223854 L580.355972,252.071858 C574.619692,250.686677 570.431245,245.76026 569.986912,239.875856 C568.662304,222.333763 568,210.641658 568,204.799542 C568,198.664133 570.073019,186.53016 574.219058,168.397624 C575.116875,164.471058 577.31633,160.963571 580.459921,158.445274 L582.325,156.95 L578.189795,156.197711 C572.936971,155.241205 569.119377,150.665676 569.119377,145.326475 L569.119377,125.08959 C569.119377,109.598002 581.67779,97.0395892 597.169378,97.0395892 L615.967872,97.0382755 C616.331225,94.9745179 616.68971,92.9709244 617.040359,91.0314519 C621.65154,87.0540847 628.905617,84.2440159 638.802592,82.6012457 C639.482751,76.6951815 639.822466,71.9237225 639.822466,68.286361 C639.822466,67.2482941 639.794797,66.1178579 639.739459,64.8950523 C629.270818,59.2279512 622.099842,47.6568166 622.099842,34.3037004 C622.099842,15.3582898 636.534983,0 654.341632,0 Z M766.711,508.514 L766.580922,508.552202 C765.779864,508.787828 765.391887,508.957445 765.516845,509.026142 C766.064897,509.327439 766.439987,509.195425 766.66068,508.665735 L766.711,508.514 Z" id="Combined-Shape-Copy" fill="#449C1A"></path>
    </g>
</svg>