<?xml version="1.0" encoding="UTF-8"?>
<svg width="167px" height="167px" viewBox="0 0 167 167" version="1.1" xmlns="http://www.w3.org/2000/svg" xmlns:xlink="http://www.w3.org/1999/xlink">
    <title>app-icon</title>
    <g id="app-icon" stroke="none" stroke-width="1" fill="none" fill-rule="evenodd">
        <g id="logo">
            <g id="Group-2-Copy">
                <rect id="Rectangle-4" fill="#449C1A" x="0" y="0" width="167" height="167" rx="28"></rect>
                <g id="Group" transform="translate(17.917445, 37.445434)">
                    <path d="M20.1045452,25.3426518 C23.7831788,25.3426518 28.1889842,29.0322154 33.3219613,36.4113426 L33.3219613,36.4113426 L34.7335301,36.1311226 C35.3323774,34.6366158 36.102324,33.6558457 37.0433698,33.1888124 C38.4549385,32.4882623 40.5081294,32.9085923 42.8179691,34.7300225 C43.0746179,35.9910126 42.4329958,37.2520026 42.4329958,39.0734328 C43.5879156,38.7932128 44.3578622,39.2135428 44.4861866,39.7739828 C44.6145111,40.3344229 44.6145111,41.595413 43.5879156,42.856403 C42.5613202,44.1173931 42.6080623,43.766712 41.9196981,43.8371731 C41.2313339,43.9076342 40.6235135,43.8734516 39.3532095,43.1366231 C38.0829055,42.3997946 35.8884499,42.9965131 35.6318011,42.436073 C35.6318011,45.0514599 34.9901789,46.7794833 33.7069346,47.6201434 C33.621385,52.2904771 33.3219613,55.746524 32.8086636,57.9882841 C32.2953659,60.2300443 32.2098163,62.3783978 32.5520148,64.4333446 C34.0985585,68.4124086 35.2107036,72.5223022 35.8884499,76.7630255 C36.0253025,77.6193254 36.1387956,78.3263302 36.2312611,78.9186293 L36.3054219,79.3990298 C36.8007819,82.6521432 36.5278104,81.9497903 36.0270337,85.3097361 C35.6233067,88.0185296 35.1921389,89.7465531 34.7335301,90.4938065 C33.1080873,90.5872131 32.2098163,90.4938065 32.0387171,90.2135864 C31.8676178,89.9333664 31.610969,88.5322663 31.2687705,86.0102861 L31.2687705,86.0102861 L32.5520148,84.8894061 L33.9635835,81.2465458 C30.7982476,76.1091788 28.7450567,69.9910417 27.8040109,62.8921345 C28.1462094,59.9965276 28.6167323,57.5679541 29.2155796,55.606414 L29.2155796,55.606414 L27.8040109,55.606414 C26.6063162,58.5020208 25.8791445,60.3701543 25.6224956,61.2108144 C25.5647496,61.3999629 25.5030975,61.5813205 25.439297,61.7607575 L25.3093524,62.11881 C24.9799336,63.0162359 24.6261015,63.9634836 24.4675758,65.6943347 C24.4222946,66.1887334 25.0058178,66.5206713 25.1091979,67.2355448 C25.212578,67.9504183 25.3824533,71.858232 26.0074689,76.3426954 C26.4111248,79.2389114 26.5610129,79.5629814 26.6856868,79.6934444 L26.7095638,79.7169164 L26.7095638,79.7169164 L26.7331793,79.7393857 C26.7371139,79.7432599 26.741053,79.747252 26.7450041,79.7514419 L26.768918,79.7795927 C26.8092214,79.8325946 26.8522714,79.9213386 26.9057399,80.1256657 C27.1623888,81.1064358 27.971154,82.7701006 27.1623888,84.8894061 C27.4190376,86.6641328 26.4779918,87.3179796 24.3392513,86.8509462 C23.9115032,89.0927064 23.9115032,90.2602898 24.3392513,90.3536964 C25.8791445,90.2135864 27.6756865,89.7932564 28.9589308,90.4938065 C30.0588544,91.0942779 29.3674738,91.9006253 29.0666784,92.2069883 L28.9589308,92.3152366 C28.8306063,92.4553466 21.1311406,92.5954566 20.1045452,92.3152366 C19.0779497,92.0350166 20.1045452,89.9333664 20.8744918,90.2135864 C19.721306,85.9724186 19.486732,82.2640832 19.4783195,79.7112067 L19.4789636,79.2850057 C19.4950041,76.727998 19.7195719,75.5020354 19.3345986,76.3426954 C18.8213009,77.4635755 14.971568,80.4525891 7.78540002,85.3097361 C7.73011442,86.7659087 7.94398847,87.9334922 8.42702216,88.8124863 C9.15157269,90.1309776 11.6351329,91.3344665 11.6351329,92.3152366 C11.6351329,93.2960067 8.42702216,92.7355666 7.78540002,92.3152366 C7.14377787,91.8949066 5.62146501,90.7124117 4.83393815,89.7932564 C4.30892025,89.1804862 3.6245233,88.1997161 2.78074729,86.8509462 C2.69519767,84.7959994 3.50791906,84.048746 5.21891144,84.609186 C9.58194202,78.5844556 8.94031987,79.5652257 15.0998925,73.5404952 C12.3759148,69.3371949 12.6617283,67.3756548 11.8917817,66.5349947 C10.7076972,65.8344447 10.5793728,65.8344447 9.96691531,65.2740047 C7.77997786,63.5374299 9.59729207,56.9243819 10.169514,55.0089953 L10.2267465,54.8191397 C10.3475865,54.4217742 10.3753846,54.351344 10.2235642,54.7657539 C9.45361759,56.867404 0.855880861,51.5432237 0.214258717,44.5377232 C-0.213489379,39.8673895 4.06399158,36.2245292 13.0467016,33.6091424 C11.16461,28.845402 13.5172245,26.0899052 20.1045452,25.3426518 Z M18.1796787,66.9553248 C17.7144779,67.1876619 20.1045452,70.9315588 19.9762208,74.5212653 C20.3168079,74.960745 20.361194,72.5597252 22.0294116,70.177855 C21.0028162,70.177855 19.2062742,68.3564249 18.1796787,66.9553248 Z M23.1843315,56.447074 C22.7993582,56.026744 22.1766596,56.3110531 21.259465,56.867404 C20.3422705,57.423755 18.4363276,61.2108144 18.4363276,61.4910344 C20.0293205,61.3171047 20.8807478,61.8988695 21.420206,62.2647215 L21.5890603,62.3773426 C21.826778,62.5302808 21.9984367,62.6022517 22.157736,62.4718044 C22.157736,60.6503743 22.4143849,60.0899343 22.5427093,58.9690542 C22.6710338,57.8481741 23.5693048,56.867404 23.1843315,56.447074 Z" id="Combined-Shape-Copy-2" fill="#FFFFFF"></path>
                    <path d="M65.3727439,65.2226476 C58.9576619,69.3331408 54.1249668,73.4903441 50.8746586,77.6942576 C51.6444684,80.4968666 50.7848198,83.9089934 51.77277,85.6816932 C52.7991832,84.6540699 53.1010437,85.4872077 53.6142503,82.9648596 C54.1274569,80.4425116 53.9111307,80.5435767 53.3123897,77.834388 C59.0859635,76.8534749 67.6821734,70.1272133 69.2217931,67.7449957 C70.2482062,66.1568506 70.4620422,64.1950243 69.8633013,61.8595168 C70.9752488,64.101604 72.1299636,65.2226476 73.3274455,65.2226476 C71.6595242,71.8087787 72.6803254,71.4203015 72.5576357,76.7133444 C72.434946,82.0063874 72.8757945,84.8981359 72.814239,87.3632586 C72.7526835,89.8283812 71.018016,90.4461284 72.3010324,91.7073025 C73.5840488,92.9684765 82.2606875,92.9279331 83.84818,92.1276938 C82.5651636,89.8856066 78.6534187,90.8917164 77.3047964,89.1849544 C75.956174,87.4781924 76.02178,85.9619541 76.7915898,76.8534749 C77.5613997,67.7449957 78.0746062,69.5666915 78.0746062,62.7002995 C77.6897013,58.0759947 74.1638465,54.2799613 70.9563055,50.3563087 C70.9563055,46.7300184 71.9588947,44.5739812 72.814239,39.9963865 C75.8217644,42.8021575 77.3237762,44.1064045 78.6330701,44.7064668 C78.8449008,44.8035509 79.017975,48.7702498 79.6594832,48.7702498 C80.0699535,48.7702498 80.1944062,47.3753223 80.2675208,46.3596257 C80.3086742,45.7879292 81.1991029,50.4518152 82.3085603,50.8722065 C83.1324324,51.1843849 81.4712404,46.9827413 81.6658826,47.0074991 C81.8605248,47.0322568 83.0620824,50.5808245 83.575289,49.7400418 C83.7973615,49.376222 82.8864854,46.6424075 81.8605248,45.1844609 C81.5648091,44.7642326 81.2220092,44.3577907 80.8348678,43.9992826 C79.7808798,42.400201 78.6762721,40.8854744 78.2481652,40.3624228 C76.5033769,38.2306793 73.7123505,35.3720817 73.7123505,35.3720817 C74.225557,33.0365742 74.3110914,29.9097745 73.9689537,25.705861 C74.9098324,23.7440347 75.1236685,23.6973245 75.3802718,23.6039042 C80.0443881,25.705861 81.1934335,23.5481251 81.6670521,23.3236433 C82.1406707,23.0991616 82.5651636,21.1359112 82.436862,20.3809039 C82.3085603,19.6258967 81.4557062,18.6449835 80.3840357,18.4190776 C80.7905527,16.5625571 80.3201133,15.7217744 78.9727177,14.4954251 C76.9516243,12.6559011 73.9236964,13.9892583 72.9425406,15.4763382 C71.9613848,16.9634181 72.4124559,17.4415001 71.191575,19.3999908 C70.3776543,20.7056512 69.8191905,21.4063035 68.8368881,21.7822084 C65.5463028,21.4063035 64.4368454,23.1835129 63.2368733,22.6229911 C62.7210846,21.4475925 62.0821585,21.0272012 60.4972816,20.7469403 C58.9124046,20.4666794 56.0939957,20.9358651 54.4260744,23.5983437 C52.7581531,26.2608222 53.5020686,28.5831798 54.3747869,28.9233007 C52.4930295,30.0443443 51.3452273,31.145063 50.8746586,33.779072 C48.8218323,45.2697688 52.3501241,47.8913673 54.2105012,48.4069937 C55.0255683,48.6328996 56.1802831,49.3335519 58.3161537,48.1267328 C58.5555252,52.8289888 59.2825679,54.0901629 60.4972816,57.5154729 C60.7765815,58.3030568 65.0214458,64.9029092 65.3727439,65.2226476 Z" id="Path-Copy" fill="#FFFFFF"></path>
                    <path d="M106.899013,0.0643314771 C108.144513,0.0643314771 110.287714,0.189428244 111.188583,0.959443659 C112.388185,1.9848002 112.157195,3.89420402 112.157195,5.65878261 C112.157195,5.86575175 112.869646,6.57653076 112.849061,6.77767284 C112.795455,7.30148463 112.378244,7.03979643 112.157195,7.52359966 C111.936813,8.00594385 111.903118,8.63561825 111.830092,9.23184909 C111.75224,9.86747779 111.629687,10.4650971 111.188583,10.8056777 C110.692761,11.1885055 109.861619,11.293608 109.015428,11.3066186 L109.015501,14.4316541 C109.496441,14.7579149 109.942875,15.1521111 110.340581,15.6131933 C111.390606,16.8305447 111.971924,18.3825447 111.980022,19.9901613 C111.983828,20.7358632 111.961071,21.2081503 111.9118,21.4070224 C111.705786,22.2385558 111.484522,22.5669423 111.449548,24.0402115 C111.42666,25.0044001 111.512072,26.0997133 111.705786,27.3261511 C118.026306,33.8279356 121.186567,37.3414171 121.186567,37.8665957 C121.186567,38.061559 122.882838,37.8665957 123.65155,38.5664833 C124.420262,39.266371 126.47016,41.7818006 125.445211,42.0617556 C125.120274,42.0826388 124.849983,42.065156 124.620841,42.0181259 C123.314066,41.7499186 123.345534,40.5207478 122.211516,39.9662586 C121.936609,39.8318402 122.669884,42.139626 122.242245,42.0617556 C121.890672,41.9977364 121.186567,42.0659215 120.802211,39.9662586 C120.081554,39.5312777 118.37321,38.9229057 116.189939,37.7266182 C115.31333,37.2462947 113.7332,35.8255076 111.449548,33.4642569 L111.449548,38.7306351 L111.449548,38.7306351 C111.449548,39.5721804 111.534961,40.8245135 111.705786,42.4876344 C116.40347,47.6189569 119.307493,53.077487 120.417855,58.8632248 C120.627751,60.5310422 120.905758,62.2547952 121.222712,63.9785075 L121.360849,64.7170757 C121.431025,65.0861954 121.502798,65.454946 121.575881,65.8227768 L121.723709,66.5570486 C123.342262,74.494838 125.486062,81.8284366 125.236484,82.9556298 L125.224907,82.9953315 L125.268683,82.9835648 C126.604313,82.6155221 133.015709,81.473612 133.229721,83.4992697 C133.453026,85.6128889 132.597914,85.6528314 129.51428,86.0188652 C128.295146,86.1635788 124.143504,89.7636825 123.492702,88.3984831 C123.118297,87.6130852 122.980228,86.7187528 122.211516,83.4992697 C118.624193,77.480236 116.194833,68.2558505 116.028272,62.4096184 C113.755684,59.8430675 112.959501,57.1550735 111.065192,54.3839439 C110.782321,53.9701397 110.729373,56.3154668 110.60207,58.7492033 L110.574571,59.2531205 C110.464325,61.1829222 110.294108,63.0524782 109.912124,63.5294386 C109.433379,64.1272203 104.146785,70.061427 102.096886,84.4791124 C102.609361,87.4186404 109.39965,89.3783258 108.118463,91.0580562 C106.837277,92.7377865 95.9673119,87.6696465 96.3315464,85.179 C96.5687915,83.5567113 98.6376823,80.6997191 99.4901283,76.3075358 C100.687581,63.3425057 104.412101,63.830028 104.274903,60.1230226 C103.164542,57.6967454 102.310417,54.0573297 101.71253,49.2047754 C100.772993,48.551547 100.1324,47.7116818 99.7907503,46.6851799 C99.2782756,45.1454271 100.009018,43.212118 99.9729604,42.538975 C99.7415299,41.4553439 99.5567557,40.3557604 99.4127637,39.2480518 C98.9316779,40.4356883 97.7964415,41.2884071 96.4537694,41.3610102 L96.2674873,41.3660339 L96.2674873,41.3660339 C94.5948583,41.3660339 93.205921,40.0747934 93.0841427,38.4066035 C92.9066491,35.9753117 92.8179066,34.3278626 92.8179066,33.4642569 C92.8179066,32.3555456 93.2329912,30.0457306 94.0631605,26.5348118 L95.588718,25.312373 C94.0159844,24.3040545 93.0004613,22.5432855 93.0004613,20.579371 C93.0004613,17.9895713 95.0999087,15.8901238 97.6897084,15.8901238 L100.641007,15.8886888 C100.675921,15.6903933 100.710559,15.4955043 100.744822,15.3041541 L100.8157,14.9102812 L100.8157,14.9102812 C101.86385,14.0062007 103.110341,13.4809811 104.388116,13.3222941 C104.483713,12.4569131 104.531141,11.7497285 104.531141,11.2008767 C104.531141,11.0320935 104.526656,10.8483371 104.517685,10.6496072 C102.810275,9.72351174 101.64083,7.83645019 101.64083,5.65878261 C101.64083,2.56905257 103.994999,0.0643314771 106.899013,0.0643314771 Z" id="Combined-Shape-Copy" fill="#FFFFFF"></path>
                    <polygon id="Path-5" points="130.81693 36.2694096 133.752477 36.9217534 136.688024 40.9989018 134.404821 41.6512455 132.284703 39.8573002 131.958532 42.1405034 130.490758 41.6512455 130.0015 38.7156987"></polygon>
                </g>
            </g>
            <g id="Group-3" transform="translate(76.428052, 90.470576) rotate(7.000000) translate(-76.428052, -90.470576) translate(69.428052, 81.970576)" fill="#FFFFFF">
                <path d="M8.5802007,13.0352092 C10.3271386,13.1886685 10.9030853,11.0530732 10.9030853,7.27013835 C10.9030853,3.48720355 10.036628,0.420528978 8.9677988,0.420528978 C7.8989696,0.420528978 6.26634676,1.68268331 6.26634676,5.46561811 C6.26634676,9.24855291 6.83326281,12.8817499 8.5802007,13.0352092 Z" id="Oval-2" transform="translate(8.584716, 6.731739) rotate(28.000000) translate(-8.584716, -6.731739) "></path>
                <path d="M7.06026473,10.4876175 C7.59429065,12.5004424 6.92726281,14.3826202 4.9637044,15.7063675 C3.53446603,16.669899 1.47497227,17.2849124 0.256379486,16.7809764 C-0.962213293,16.2770403 4.30098224,14.6169363 4.15733504,14.0755081 C4.01368784,13.5340799 0.513115466,14.6404169 0.513115466,13.3479568 C0.513115466,12.0554967 2.80347929,12.6902854 3.89357278,11.9553909 C5.16675553,11.0970655 6.52623881,8.4747925 7.06026473,10.4876175 Z" id="Path-6"></path>
            </g>
        </g>
    </g>
</svg>