<?xml version="1.0" encoding="UTF-8"?>
<svg width="1945px" height="3678px" viewBox="0 0 1945 3678" version="1.1" xmlns="http://www.w3.org/2000/svg" xmlns:xlink="http://www.w3.org/1999/xlink">
    <title>hero-background-mobile</title>
    <defs>
        <rect id="path-1" x="0" y="0" width="1945" height="3678"></rect>
        <radialGradient cx="49.0083193%" cy="50%" fx="49.0083193%" fy="50%" r="15.5849877%" gradientTransform="translate(0.490083,0.500000),scale(1.000000,0.792668),rotate(89.538001),translate(-0.490083,-0.500000)" id="radialGradient-3">
            <stop stop-color="#E9FF99" offset="0%"></stop>
            <stop stop-color="#D5FFC2" offset="100%"></stop>
        </radialGradient>
        <radialGradient cx="50%" cy="50%" fx="50%" fy="50%" r="90.4685689%" gradientTransform="translate(0.500000,0.500000),scale(1.000000,0.792668),rotate(90.000000),translate(-0.500000,-0.500000)" id="radialGradient-4">
            <stop stop-color="#E9FF99" offset="0%"></stop>
            <stop stop-color="#E9FF99" stop-opacity="0" offset="100%"></stop>
        </radialGradient>
        <radialGradient cx="50%" cy="50%" fx="50%" fy="50%" r="100%" gradientTransform="translate(0.500000,0.500000),scale(0.709159,1.000000),rotate(90.000000),translate(-0.500000,-0.500000)" id="radialGradient-5">
            <stop stop-color="#FDFFDB" stop-opacity="0.62691215" offset="0%"></stop>
            <stop stop-color="#DBF39D" stop-opacity="0" offset="100%"></stop>
        </radialGradient>
        <rect id="path-6" x="0" y="0" width="488" height="716"></rect>
    </defs>
    <g id="hero-background-mobile" stroke="none" stroke-width="1" fill="none" fill-rule="evenodd">
        <g id="Group-9">
            <mask id="mask-2" fill="white">
                <use xlink:href="#path-1"></use>
            </mask>
            <rect stroke="#979797" x="0.5" y="0.5" width="1944" height="3677"></rect>
            <g id="background" mask="url(#mask-2)">
                <g transform="translate(0.000000, -685.186293)">
                    <rect id="background-back" fill="url(#radialGradient-3)" x="0" y="0" width="3458.55636" height="4363.18629"></rect>
                    <rect id="background-front" fill="url(#radialGradient-4)" x="0" y="0" width="3458.55636" height="4363.18629"></rect>
                </g>
            </g>
            <ellipse id="sun-glow" fill="url(#radialGradient-5)" mask="url(#mask-2)" cx="1729.27818" cy="2766.75224" rx="1729.27818" ry="1226.33342"></ellipse>
            <g id="mountains" mask="url(#mask-2)">
                <g transform="translate(0.000000, 2403.653522)">
                    <ellipse id="sun-core" fill="#FEFEF2" cx="1807.86456" cy="363.098722" rx="363.373649" ry="363.098722"></ellipse>
                    <path d="M0.00557435463,729.198259 C159.699814,746.853125 273.299354,759.308086 340.804194,766.563143 C403.631223,774.920268 392.54098,780.212129 415.756212,798.641352 C467.723211,901.507799 440.542884,901.507799 515.535682,993.764326 C515.535682,1078.62269 515.535682,1163.48105 515.535682,1248.33941 L0.00557435463,1248.33941 L0.00557435463,729.198259 Z" id="Rectangle" fill="#50AE6F"></path>
                    <path d="M1347.39664,286.077781 C1383.95505,379.777798 1416.32166,465.301051 1444.49648,542.647539 C1345.16423,708.080409 1458.64454,620.397922 1366.03949,749.703835 C1326.74437,804.57223 1550.99683,943.018943 1580.66701,1069.66511 C1591.9635,1117.88385 1505.82855,1157.92452 1322.26214,1189.78712 L1063.16716,1274.34648 L0.00557435463,1274.34648 L0.00557435463,1231.01145 C195.654223,1216.26569 434.658293,1082.6373 717.017784,830.126284 C824.882332,733.664194 938.051666,655.321689 1024.83384,579.629186 C1118.42684,497.996192 1225.94777,400.145724 1347.39664,286.077781 Z" id="Rectangle" fill="#206E2E"></path>
                    <path d="M1347.3282,286.077781 C1369.08222,383.572216 1394.04663,470.992678 1422.22145,548.339166 C1322.88919,713.772036 1384.70882,612.078556 1292.10377,741.384468 C1252.80865,796.252864 1511.70162,929.287914 1541.37179,1055.93409 C1552.66829,1104.15282 1473.22735,1141.84331 1303.04896,1169.00555 L1063.09873,1274.34648 L3212.39522,1274.34648 C3024.11518,1167.47064 2911.26186,1098.88826 2873.83527,1068.59935 C2855.334,1057.21511 2833.82674,1055.09836 2809.31352,1062.2491 C2763.76301,1080.98961 2723.74031,1098.25081 2689.24542,1114.03271 C2593.19228,1072.25074 2568.03263,1066.32667 2459.03428,1033.08177 C2386.36871,1010.91849 2276.00884,979.648912 2127.95467,939.273022 L2006.61678,704.125139 L1684.35923,481.243752 L1347.3282,286.077781 Z" id="Rectangle-Copy" fill="#34833B"></path>
                    <path d="M2250.11004,347.745773 C2283.76847,324.39628 2319.56277,316.831809 2357.49293,325.05236 C2494.99139,356.400814 2731.95035,419.910218 2934.85428,484.471088 C2937.4907,489.768155 2946.20431,495.925158 2941.97111,500.751686 C2878.94641,572.609923 2832.19423,619.540996 2743.33711,733.383515 C2742.91914,794.413936 2755.0262,846.999549 2751.81895,894.318639 C2663.68499,976.370241 2632.4419,1060.16306 2626.54424,1088.59003 C2530.4911,1046.80806 2568.09549,1065.3264 2459.09714,1032.08149 C2386.43157,1009.91822 2276.0717,978.648641 2128.01752,938.27275 L2006.67964,703.124867 L1883.37501,619.540996 L2250.11004,347.745773 Z" id="Rectangle-Copy-2" fill="#A4E3AA"></path>
                </g>
            </g>
            <g id="clouds" mask="url(#mask-2)" fill="#FFFFFF" fill-opacity="0.62">
                <g transform="translate(0.000000, 1759.753387)">
                    <path d="M0,929.977916 C62.3038672,928.136284 116.142419,949.09118 161.515656,992.842603 C271.712646,986.931279 397.072297,1047.71664 381.342069,1068.42796 C403.517833,1071.38598 424.116187,1072.60644 443.137129,1072.08935 C553.691854,1088.32539 569.932038,1105.92802 491.857681,1124.89722 C609.19953,1124.89722 665.8071,1135.29933 661.680391,1156.10354 C616.656494,1172.19702 396.096364,1185.39339 0,1195.69264 L0,929.977916 Z" id="Rectangle"></path>
                    <path d="M922.448533,558.877018 C1274.33962,558.877018 1559.60371,537.156923 1559.60371,510.363828 C1559.60371,497.53952 1494.25015,485.877429 1387.51796,477.20301 C1419.63236,372.877531 1270.50647,421.382118 1221.45934,426.37385 C1165.60497,341.259138 1078.19052,375.908241 1017.36213,386.147279 C983.465843,283.804131 836.070129,306.987929 772.403501,403.190299 C723.987441,377.994902 609.756788,391.672474 573.266361,447.518643 C496.376966,426.37385 404.300066,422.508683 399.478691,490.078486 C370.214012,486.903765 285.293361,494.974967 285.293361,510.363828 C285.293361,537.156923 570.557448,558.877018 922.448533,558.877018 Z" id="Oval"></path>
                </g>
            </g>
        </g>
        <g id="hiker" transform="translate(0.000000, 2962.000000)">
            <mask id="mask-7" fill="white">
                <use xlink:href="#path-6"></use>
            </mask>
            <g id="mask"></g>
            <g mask="url(#mask-7)">
                <g transform="translate(2.004107, 0.000000)">
                    <path d="M126.874045,291.507263 C134.916758,354.696545 138.938114,403.47719 138.938114,437.849199 C138.938114,472.221208 134.159612,525.537675 124.602608,597.798601 L174.425575,599.12376 L206.770986,283.703516 L126.874045,291.507263 Z" id="Line" stroke="none" fill="#4D4D4D" fill-rule="evenodd"></path>
                    <path d="M206.770986,357.60507 C206.770986,392.912451 206.770986,427.752145 206.770986,462.124154 C206.770986,496.496163 199.122348,537.968299 183.82507,586.540561 L206.770986,357.60507 Z" id="Line-Copy" stroke="#4D4D4D" stroke-width="17" fill="none" stroke-linecap="round"></path>
                    <path d="M254.666979,287.315059 C312.489191,345.286646 343.721146,379.423313 348.362846,389.725059 C353.004546,400.026804 349.210141,453.966951 336.979631,551.545498 L279.111767,551.545498 L278.228135,364.156983 L254.666979,287.315059 Z" id="Line-2" stroke="none" fill="#4D4D4D" fill-rule="evenodd"></path>
                    <line x1="215.378578" y1="360.5" x2="279.491444" y2="414.5" id="Line-3" stroke="#4D4D4D" stroke-width="10" fill="none" stroke-linecap="square"></line>
                    <line x1="265.466755" y1="195.5" x2="258.45441" y2="287.5" id="Line-3-Copy" stroke="#4D4D4D" stroke-width="10" fill="none" stroke-linecap="square"></line>
                    <line x1="119.20928" y1="291.5" x2="97.1704823" y2="291.5" id="Line-3-Copy-6" stroke="#4D4D4D" stroke-width="12" fill="none" stroke-linecap="square"></line>
                    <path d="M265.466755,195.5 C278.471398,219.84525 285.149821,232.178584 285.502025,232.5 C285.854229,232.821416 317.24282,249.488083 379.667797,282.5" id="Line-3-Copy-2" stroke="#4D4D4D" stroke-width="10" fill="none" stroke-linecap="round"></path>
                    <line x1="393.692486" y1="227.5" x2="332.584911" y2="193.5" id="Line-3-Copy-4" stroke="#4D4D4D" stroke-width="10" fill="none" stroke-linecap="round"></line>
                    <path d="M228.109677,87.1578655 C249.59508,89.4603004 263.474311,91.3954042 269.74737,92.9631769 C276.02043,94.5309495 279.936297,97.0432239 281.494971,100.5 L332.584911,193.5" id="Line-3-Copy-5" stroke="#4D4D4D" stroke-width="10" fill="none" stroke-linecap="round"></path>
                    <path d="M99.5371543,287.5 C98.0370289,303.131536 97.5824459,313.30634 98.1734053,318.024411 C99.7317905,330.466167 103.926635,338.556722 103.926635,347.036735 C103.926635,360.34034 102.008892,371.161429 98.1734053,379.5" id="Line-4" stroke="#4D4D4D" stroke-width="15" fill="none" stroke-linecap="round"></path>
                    <path d="M90.2900512,283.669912 C90.0373251,259.684727 90.0373251,159.965303 90.0373251,158.809169 C90.0373251,155.883287 90.2287462,150.880249 91.0494988,150.281006 C93.7075409,148.340331 98.6489014,149.047895 99.5296475,147.178789 C101.473232,143.054142 101.697191,137.830195 102.26671,133.436208 C103.109057,126.937288 103.850449,121.625367 105.06061,119.258767 C108.736016,112.071114 111.379987,107.486161 112.99252,105.503908 C115.158453,102.841373 123.132356,95.5102715 130.803111,92.7685824 C142.150039,88.7129514 150.191213,92.7730597 151.729629,92.2946907 C155.999884,90.9668587 160.089071,86.1299768 182.492534,84.9985318 C191.180991,85.7528285 208.028064,85.793244 233.033752,85.1197783 L276.827504,94.0520898 L302.472643,158.809169 C161.186066,258.039788 90.4585353,299.660035 90.2900512,283.669912 Z" id="Line-5" stroke="none" fill="#4D4D4D" fill-rule="evenodd"></path>
                    <ellipse id="Oval" stroke="#4D4D4D" stroke-width="6" fill="#4D4D4D" fill-rule="evenodd" cx="208.366234" cy="48" rx="38.5731863" ry="45"></ellipse>
                    <path d="M394.193368,203.494792 C397.862503,203.494792 400.873461,204.118216 401.180012,206.999095 L401.205712,207 L401.205712,599 L387.181023,599 L387.181023,207 L387.201237,206.999469 C387.475253,203.7363 390.50105,203.494792 394.193368,203.494792 Z" id="Combined-Shape" stroke="none" fill="#4D4D4D" fill-rule="nonzero" transform="translate(394.193368, 401.247396) rotate(2.000000) translate(-394.193368, -401.247396) "></path>
                    <polygon id="Rectangle" stroke="none" fill="#4D4D4D" fill-rule="evenodd" transform="translate(247.653371, 345.589439) rotate(42.000000) translate(-247.653371, -345.589439) " points="158.004837 317.90903 219.487208 298.165846 337.301905 307.489707 336.785596 378.060678 234.045525 378.165464 217.26762 393.013031"></polygon>
                    <path d="M377.95221,226.399899 C379.685516,225.57307 381.903884,227.223955 383.866773,228.133402 L383.866773,228.133402 L384.519022,228.436963 C387.566479,229.858724 390.454401,231 392.690722,231 C398.588603,231 403.897611,233.76197 407.752172,238.137871 C411.778867,242.709189 414.235692,249.033188 414.235692,256 C414.235692,262.864035 411.141612,269.354513 406.595501,274.195844 C401.990113,279.100301 395.839605,282.39496 389.694191,282.39496 C388.653209,282.39496 387.711161,282.422458 386.832842,282.448544 C383.654996,282.542927 381.54595,282.661862 377.701184,280.288004 C370.194979,275.65348 363.192957,264.410397 363.192957,256 C363.192957,250.595691 365.015658,243.538028 368.127015,237.473055 C370.608156,232.636564 373.89083,228.337277 377.95221,226.399899 Z" id="Oval" stroke="#4D4D4D" stroke-width="8" fill="#4D4D4D" fill-rule="evenodd"></path>
                    <path d="M7.29089798e-12,715.5 C7.29089798e-12,706.351815 7.29089798e-12,689.598611 0.664692135,671.899302 C3.9359299,668.932951 21.6963082,666.83438 53.945827,665.60359 C61.3546934,663.447862 66.6516277,661.448447 69.8366301,659.605344 C81.7811671,652.693257 90.2039566,644.010741 95.3492416,639.345008 C99.1049392,635.93935 103.333164,632.082146 107.512291,626.276369 C110.069795,622.723401 113.997515,616.133222 119.295449,606.505831 C121.005798,604.250809 122.452299,602.587085 123.634951,601.514658 C124.817604,600.442231 126.681592,599.104011 129.226915,597.5 L129.226915,715.5 C48.1449679,715.5 5.06932955,715.5 7.29089798e-12,715.5 Z" id="Line-7" stroke="#4D4D4D" stroke-width="9" fill="#4D4D4D" fill-rule="evenodd" stroke-linecap="square"></path>
                    <path d="M193.339781,583.438135 C214.627015,579.261144 230.136133,575.145511 239.867137,571.091236 C249.59814,567.03696 262.806243,559.187998 279.491444,547.544349 L337.538676,547.135528 L346.095361,731.5 L133.200117,731.5 L133.200117,596.270977 L193.339781,583.438135 Z" id="Line-8" stroke="none" fill="#4D4D4D" fill-rule="evenodd"></path>
                    <path d="M337.742558,551.5 C340.063553,548.769051 354.295337,561.385127 380.437911,589.348227 C391.016088,600.66305 399.154057,603.773332 418.992758,614.51231 C425.922424,618.263439 434.128433,625.092364 442.281225,633.829154 C444.701827,636.423148 463.644359,650.461893 472.260785,667.200283 C478.005069,678.359209 482.369801,694.625781 485.354979,716 L334.679747,716 L337.742558,551.5 Z" id="Line-9" stroke="none" fill="#4D4D4D" fill-rule="evenodd"></path>
                    <path d="M243.309562,135.253369 L332.457054,193.574547 L409.50244,194.806134 C427.530814,195.094321 441.990324,209.799325 441.974984,227.829995 L441.974489,228.41161 C441.959002,246.615088 427.206022,261.368053 409.002544,261.383523 L306.730351,261.470434 L306.730351,261.470434 L252.50663,226.306985 L243.309562,135.253369 Z" id="Rectangle" stroke="none" fill="#4D4D4D" fill-rule="evenodd" transform="translate(342.656100, 198.361901) rotate(28.000000) translate(-342.656100, -198.361901) "></path>
                    <rect id="Rectangle" stroke="none" fill="#4D4D4D" fill-rule="evenodd" x="94.1930185" y="152" width="168.344969" height="146"></rect>
                </g>
            </g>
        </g>
    </g>
</svg>