<?xml version="1.0" encoding="UTF-8"?>
<svg width="3457px" height="2188px" viewBox="0 0 3457 2188" version="1.1" xmlns="http://www.w3.org/2000/svg" xmlns:xlink="http://www.w3.org/1999/xlink">
    <title>hero-background</title>
    <defs>
        <rect id="path-1" x="0" y="0" width="3457" height="2188"></rect>
        <radialGradient cx="49.0083193%" cy="50%" fx="49.0083193%" fy="50%" r="97.4969801%" gradientTransform="translate(0.490083,0.500000),scale(0.632919,1.000000),rotate(89.079181),translate(-0.490083,-0.500000)" id="radialGradient-3">
            <stop stop-color="#E9FF99" offset="0%"></stop>
            <stop stop-color="#D5FFC2" offset="100%"></stop>
        </radialGradient>
        <radialGradient cx="50%" cy="50%" fx="50%" fy="50%" r="71.7115023%" gradientTransform="translate(0.500000,0.500000),scale(0.632919,1.000000),rotate(90.000000),translate(-0.500000,-0.500000)" id="radialGradient-4">
            <stop stop-color="#E9FF99" offset="0%"></stop>
            <stop stop-color="#E9FF99" stop-opacity="0" offset="100%"></stop>
        </radialGradient>
        <radialGradient cx="50%" cy="50%" fx="50%" fy="50%" r="100%" gradientTransform="translate(0.500000,0.500000),scale(0.709286,1.000000),rotate(90.000000),translate(-0.500000,-0.500000)" id="radialGradient-5">
            <stop stop-color="#FDFFDB" stop-opacity="0.62691215" offset="0%"></stop>
            <stop stop-color="#DBF39D" stop-opacity="0" offset="100%"></stop>
        </radialGradient>
        <rect id="path-6" x="0" y="0" width="488" height="716"></rect>
    </defs>
    <g id="hero-background" stroke="none" stroke-width="1" fill="none" fill-rule="evenodd">
        <g id="Group-9">
            <mask id="mask-2" fill="white">
                <use xlink:href="#path-1"></use>
            </mask>
            <g id="mask"></g>
            <rect id="background-back" fill="url(#radialGradient-3)" mask="url(#mask-2)" x="0" y="0" width="3457" height="2188"></rect>
            <rect id="background-front" fill="url(#radialGradient-4)" mask="url(#mask-2)" x="0" y="0" width="3457" height="2188"></rect>
            <ellipse id="sun-glow" fill="url(#radialGradient-5)" mask="url(#mask-2)" cx="1728.5" cy="1277" rx="1728.5" ry="1226"></ellipse>
            <g id="mountains" mask="url(#mask-2)">
                <g transform="translate(0.000000, 914.000000)">
                    <ellipse id="sun-core" fill="#FEFEF2" cx="1807.05101" cy="363" rx="363.21013" ry="363"></ellipse>
                    <path d="M0.00557184616,729 C159.627949,746.650065 273.176369,759.10164 340.650831,766.354725 C403.449588,774.709577 392.364336,780 415.569121,798.424212 C467.512734,901.26269 440.344639,901.26269 515.303691,993.494135 C515.303691,1078.32942 515.303691,1163.16471 515.303691,1248 L0.00557184616,1248 L0.00557184616,729 Z" id="Rectangle" fill="#50AE6F"></path>
                    <path d="M1346.7903,286 C1383.33227,379.674542 1415.68432,465.174542 1443.84645,542.5 C1344.5589,707.887891 1457.98815,620.229244 1365.42477,749.5 C1326.14733,804.353478 1550.29888,942.762548 1579.9557,1069.37429 C1591.24712,1117.57991 1505.15092,1157.60969 1321.66712,1189.46363 L1062.68873,1274 L0.00557184616,1274 L0.00557184616,1230.67675 C195.566178,1215.935 434.462696,1082.34295 716.695124,829.900583 C824.511133,733.46472 937.629541,655.143516 1024.37266,579.471592 C1117.92354,497.860793 1225.39609,400.036929 1346.7903,286 Z" id="Rectangle" fill="#206E2E"></path>
                    <path d="M3084.59476,819.76121 C3045.41788,739.205416 2981.09616,630.934995 2940.64721,500.615538 C2877.65088,572.454238 2830.91973,619.372551 2742.1026,733.184118 C2741.68482,794.197945 2753.78643,846.769261 2750.58063,894.075486 C2747.03391,897.378024 2612.74781,999.604632 2626.96374,1043.59713 C2628.72346,1049.04272 2600.84404,1080.05901 2606.8576,1097.76557 C2615.02337,1121.8092 2659.45733,1133.08468 2681.44664,1132.00988 C2724.6693,1129.89722 2797.40474,1074.53199 2810.59677,1088.29406 C2831.3388,1082.83329 2837.94802,1092.16081 2857.42559,1104.96159 C2912.0958,1140.89119 2984.51187,1169.73091 3070.84358,1219.39469 C3095.17262,1233.39039 3117.07634,1247.98409 3143.895,1263.21905 C3161.86238,1273.42583 3193.23057,1261.36723 3210.45627,1274.48046 C3216.84413,1279.34327 3226.57544,1286.74217 3239.65019,1296.67716 L3457.00644,1153.90003 C3457.00644,1030.75629 3457.00644,951.887438 3457.00644,917.293491 C3418.70838,889.440864 3391.54499,863.94873 3371.81552,855.146357 C3344.12318,842.791322 3147.54218,855.146357 3084.59476,819.76121 Z" id="Rectangle-Copy-3" fill="#83D398"></path>
                    <path d="M1346.7219,286 C1368.46613,383.467928 1393.41931,470.864621 1421.58144,548.190079 C1322.29389,713.57797 1384.0857,611.912139 1291.52232,741.182895 C1252.24489,796.036373 1511.02135,929.035253 1540.67817,1055.64699 C1551.96959,1103.85262 1472.56439,1141.53286 1302.46259,1168.68771 L1062.62033,1274 L3210.94963,1274 C3022.75432,1167.15322 2909.95179,1098.58949 2872.54204,1068.30881 C2854.04909,1056.92767 2832.55152,1054.81149 2808.04933,1061.96029 C2762.51931,1080.6957 2722.51462,1097.95221 2688.03525,1113.72982 C2592.02533,1071.95921 2566.87701,1066.03675 2457.92771,1032.80088 C2385.29484,1010.64364 2274.98463,979.382559 2126.99708,939.017646 L2005.7138,703.933696 L1683.60127,481.112908 L1346.7219,286 Z" id="Rectangle-Copy" fill="#34833B"></path>
                    <path d="M2249.09748,347.651225 C2282.74077,324.308081 2318.51896,316.745667 2356.43206,324.963982 C2493.86864,356.303913 2730.72097,419.79605 2933.53359,484.339367 C2936.16882,489.634994 2944.87851,495.790322 2940.64721,500.615538 C2877.65088,572.454238 2830.91973,619.372551 2742.1026,733.184118 C2741.68482,794.197945 2753.78643,846.769261 2750.58063,894.075486 C2662.48633,976.104778 2631.25729,1059.87482 2625.36229,1088.29406 C2529.35237,1046.52345 2566.93984,1065.03675 2457.99054,1031.80088 C2385.35767,1009.64364 2275.04746,978.382559 2127.05991,938.017646 L2005.77663,702.933696 L1882.52748,619.372551 L2249.09748,347.651225 Z" id="Rectangle-Copy-2" fill="#A4E3AA"></path>
                    <polygon id="Rectangle" fill="#50AE6F" points="3458.00615 1147 3458.00615 1274 3274.90022 1274"></polygon>
                </g>
            </g>
            <g id="clouds" mask="url(#mask-2)" fill="#FFFFFF" fill-opacity="0.62">
                <g transform="translate(0.000000, 270.274933)">
                    <path d="M0,929.725067 C62.2758303,927.883936 116.090155,948.833135 161.442974,992.572662 C271.590375,986.662945 396.893613,1047.43177 381.170465,1068.13747 C403.33625,1071.09468 423.925334,1072.31481 442.937717,1071.79786 C553.442692,1088.02949 569.675567,1105.62733 491.636344,1124.59138 C608.925389,1124.59138 665.507486,1134.99066 661.382634,1155.78921 C616.378998,1171.87831 395.91812,1185.07109 0,1195.36755 L0,929.725067 Z" id="Rectangle"></path>
                    <path d="M922.03343,558.725067 C1273.76616,558.725067 1558.90188,537.010877 1558.90188,510.225067 C1558.90188,497.404246 1493.57774,485.745325 1386.89357,477.073265 C1418.99352,372.77615 1269.93474,421.267549 1220.90968,426.257925 C1165.08044,341.166354 1077.70533,375.806036 1016.90431,386.042291 C983.023281,283.726968 835.693896,306.904463 772.055918,403.080677 C723.661646,377.89213 609.482396,391.565984 573.00839,447.396969 C496.153595,426.257925 404.118131,422.393809 399.298925,489.94524 C370.047415,486.771383 285.164978,494.84039 285.164978,510.225067 C285.164978,537.010877 570.300696,558.725067 922.03343,558.725067 Z" id="Oval"></path>
                    <path d="M2897.67641,295.725067 C3297.76203,295.725067 3464.63266,307.172361 3477.08194,289.453805 C3624.82455,79.1777973 3256.70739,-103.960737 3053.55144,68.3481438 C2923.33729,47.2462246 2785.92641,118.332893 2731.43414,169.300108 C2664.66379,155.945318 2508.89916,149.681419 2478.46732,208.801459 C2247.69636,187.423351 2306.15059,236.9132 2344.36046,251.123531 C2271.74774,253.049973 2177.93725,258.966344 2177.93725,267.163713 C2177.93725,285.112968 2497.59079,295.725067 2897.67641,295.725067 Z" id="Oval"></path>
                </g>
            </g>
        </g>
        <g id="hiker" transform="translate(0.000000, 1472.000000)">
            <mask id="mask-7" fill="white">
                <use xlink:href="#path-6"></use>
            </mask>
            <g id="mask"></g>
            <g mask="url(#mask-7)">
                <g transform="translate(-0.995893, 0.000000)">
                    <path d="M211.366234,0 C234.32647,0 252.93942,21.490332 252.93942,48 C252.93942,61.3927663 248.188834,73.5044467 240.52712,82.2112203 C255.202837,82.890883 269.191161,85.7041926 282.491444,90.6492024 C283.602962,91.0383051 285.291706,92.8277278 287.557678,96.0174706 L287.565975,96 L287.63759,96.1302027 C293.608759,104.571737 303.540749,122.622005 317.433559,150.281006 L317.42219,150.292815 L338.898404,189.346757 L406.347247,226.604801 C422.13006,235.323064 427.993469,255.09514 419.515038,271.008075 L419.241549,271.521379 C410.681859,287.586825 390.729654,293.686816 374.649674,285.154459 L284.307885,237.217311 L273.07519,216.984815 L265.774307,295.462678 C303.83553,333.808059 329.291883,360.854711 342.143364,376.602633 L342.768911,377.262398 L342.723436,377.316342 C347.307811,382.980522 350.187614,387.116761 351.362846,389.725059 C355.944981,399.894608 352.306134,452.589773 340.446304,547.810552 L340.707409,553.379528 L340.742558,551.5 C343.063553,548.769051 357.295337,561.385127 383.437911,589.348227 C394.016088,600.66305 402.154057,603.773332 421.992758,614.51231 C428.922424,618.263439 437.128432,625.092364 445.281224,633.829154 C445.523285,634.088554 445.930564,634.462401 446.476215,634.94195 L446.819995,635.242294 C452.099338,639.831322 467.67833,652.4705 475.260785,667.200283 C481.005069,678.359209 485.3698,694.625781 488.354979,716 L348.364409,715.999528 L349.095361,731.5 L133.095361,731.5 L133.093749,718.001689 C53.5059733,718.320593 9.74222452,718.48643 1.80250279,718.499201 L0.99589305,718.5 C0.99589305,712.075452 0.706861057,703.561933 0.692409458,693.137889 L0.69242846,691.519141 C0.699830036,686.345526 0.779261576,680.720631 0.99589305,674.665091 C4.14967724,670.707148 23.3246804,667.179037 58.5209026,664.080757 C66.1460883,661.751657 71.5976792,659.591441 74.8756752,657.600108 C87.1689612,650.132123 95.8376739,640.751324 101.133188,635.710354 C104.998542,632.030799 109.35022,627.863383 113.651366,621.590682 C116.283543,617.75197 120.325941,610.631782 125.778561,600.230117 C126.427008,599.332613 127.038606,598.521802 127.613353,597.797684 L127.602608,597.798601 C137.159612,525.537675 141.938114,472.221208 141.938114,437.849199 C141.938114,404.663972 138.189659,358.047921 130.692748,298.001046 L97.1930184,298 L97.1930015,297.925592 C95.4336773,297.947944 94.0484518,297.972746 93.0373251,298 C92.971118,291.716557 92.9395996,279.252068 92.9291389,264.255494 L92.9281918,262.796431 L92.9277668,262.061201 L92.9277668,262.061201 L92.9263814,259.084431 L92.9263358,243.496794 L92.9276908,239.967034 C92.9285651,237.999602 92.9296375,236.022621 92.9308854,234.042136 L92.9324657,231.664261 C92.9335735,230.078406 92.9347878,228.491856 92.936097,226.907709 L92.9381307,224.533676 L92.938939,223.632971 L92.938939,223.632971 L92.9406118,221.834638 C92.9676734,193.397525 93.0216456,166.822113 93.0345207,160.313465 L93.0352785,159.929244 L93.0352785,159.929244 L93.0361028,159.506707 C93.0362234,159.444259 93.0363355,159.385831 93.0364389,159.331471 L93.0373251,158.809169 C93.0373251,155.883287 93.2287461,150.880249 94.0494988,150.281006 C96.7075408,148.340331 106.045889,150.039709 106.926635,148.170602 C107.990979,145.911867 107.221033,143.026035 106.400126,140.155694 L106.185993,139.407684 C105.983385,138.697116 105.787191,137.990945 105.62468,137.298997 C104.568453,133.886678 104,130.259724 104,126.5 C104,106.341607 120.341607,90 140.5,90 C144.706484,90 148.74677,90.7115762 152.507054,92.0209235 C153.600238,92.2596378 154.356351,92.4107609 154.729628,92.2946907 C158.962751,90.9784051 163.017941,86.2138312 184.912238,85.0288836 C175.678275,76.2261169 169.793047,62.9065902 169.793047,48 C169.793047,21.490332 188.405997,0 211.366234,0 Z M209.770608,361.393308 L209.770986,462.124154 C209.770986,496.098907 202.298125,537.010615 187.352402,584.859278 L194.112071,583.438135 C215.709747,579.261144 231.445043,575.145511 241.317958,571.091236 C251.190874,567.03696 264.591597,559.187998 281.520126,547.544349 L282.092409,547.540308 L281.483781,418.472308 L209.770608,361.393308 Z" id="Combined-Shape" stroke="none" fill="#4D4D4D" fill-rule="evenodd"></path>
                    <path d="M102.537154,287.5 C101.037029,303.131536 100.582446,313.30634 101.173405,318.024411 C102.731791,330.466167 106.926635,338.556722 106.926635,347.036735 C106.926635,360.34034 105.008892,371.161429 101.173405,379.5" id="dangle" stroke="#4D4D4D" stroke-width="15" fill="none" stroke-linecap="round"></path>
                    <path d="M397.193368,203.494792 C400.862503,203.494792 403.873461,204.118216 404.180012,206.999095 L404.205712,207 L404.205712,599 L390.181023,599 L390.181023,207 L390.201237,206.999469 C390.475253,203.7363 393.50105,203.494792 397.193368,203.494792 Z" id="stick" stroke="none" fill="#4D4D4D" fill-rule="nonzero" transform="translate(397.193368, 401.247396) rotate(2.000000) translate(-397.193368, -401.247396) "></path>
                </g>
            </g>
        </g>
    </g>
</svg>