<?xml version="1.0" encoding="UTF-8"?>
<svg width="1945px" height="3678px" viewBox="0 0 1945 3678" version="1.1" xmlns="http://www.w3.org/2000/svg" xmlns:xlink="http://www.w3.org/1999/xlink">
    <title>hero-background-mobile</title>
    <defs>
        <rect id="path-1" x="0" y="0" width="1945" height="3678"></rect>
        <radialGradient cx="49.0083193%" cy="50%" fx="49.0083193%" fy="50%" r="15.5849877%" gradientTransform="translate(0.490083,0.500000),scale(1.000000,0.792668),rotate(89.538001),translate(-0.490083,-0.500000)" id="radialGradient-3">
            <stop stop-color="#E9FF99" offset="0%"></stop>
            <stop stop-color="#D5FFC2" offset="100%"></stop>
        </radialGradient>
        <radialGradient cx="50%" cy="50%" fx="50%" fy="50%" r="90.4685689%" gradientTransform="translate(0.500000,0.500000),scale(1.000000,0.792668),rotate(90.000000),translate(-0.500000,-0.500000)" id="radialGradient-4">
            <stop stop-color="#E9FF99" offset="0%"></stop>
            <stop stop-color="#E9FF99" stop-opacity="0" offset="100%"></stop>
        </radialGradient>
        <radialGradient cx="50%" cy="50%" fx="50%" fy="50%" r="100%" gradientTransform="translate(0.500000,0.500000),scale(0.709159,1.000000),rotate(90.000000),translate(-0.500000,-0.500000)" id="radialGradient-5">
            <stop stop-color="#FDFFDB" stop-opacity="0.62691215" offset="0%"></stop>
            <stop stop-color="#DBF39D" stop-opacity="0" offset="100%"></stop>
        </radialGradient>
        <rect id="path-6" x="0" y="0" width="488" height="716"></rect>
    </defs>
    <g id="hero-background-mobile" stroke="none" stroke-width="1" fill="none" fill-rule="evenodd">
        <g id="Group-9">
            <mask id="mask-2" fill="white">
                <use xlink:href="#path-1"></use>
            </mask>
            <rect stroke="#979797" x="0.5" y="0.5" width="1944" height="3677"></rect>
            <g id="background" mask="url(#mask-2)">
                <g transform="translate(0.000000, -685.186293)">
                    <rect id="background-back" fill="url(#radialGradient-3)" x="0" y="0" width="3458.55636" height="4363.18629"></rect>
                    <rect id="background-front" fill="url(#radialGradient-4)" x="0" y="0" width="3458.55636" height="4363.18629"></rect>
                </g>
            </g>
            <ellipse id="sun-glow" fill="url(#radialGradient-5)" mask="url(#mask-2)" cx="1729.27818" cy="2766.75224" rx="1729.27818" ry="1226.33342"></ellipse>
            <g id="mountains" mask="url(#mask-2)">
                <g transform="translate(0.000000, 2403.653522)">
                    <ellipse id="sun-core" fill="#FEFEF2" cx="1807.86456" cy="363.098722" rx="363.373649" ry="363.098722"></ellipse>
                    <path d="M0.00557435463,729.198259 C159.699814,746.853125 273.299354,759.308086 340.804194,766.563143 C403.631223,774.920268 392.54098,780.212129 415.756212,798.641352 C467.723211,901.507799 440.542884,901.507799 515.535682,993.764326 C515.535682,1078.62269 515.535682,1163.48105 515.535682,1248.33941 L0.00557435463,1248.33941 L0.00557435463,729.198259 Z" id="Rectangle" fill="#50AE6F"></path>
                    <path d="M1347.39664,286.077781 C1383.95505,379.777798 1416.32166,465.301051 1444.49648,542.647539 C1345.16423,708.080409 1458.64454,620.397922 1366.03949,749.703835 C1326.74437,804.57223 1550.99683,943.018943 1580.66701,1069.66511 C1591.9635,1117.88385 1505.82855,1157.92452 1322.26214,1189.78712 L1063.16716,1274.34648 L0.00557435463,1274.34648 L0.00557435463,1231.01145 C195.654223,1216.26569 434.658293,1082.6373 717.017784,830.126284 C824.882332,733.664194 938.051666,655.321689 1024.83384,579.629186 C1118.42684,497.996192 1225.94777,400.145724 1347.39664,286.077781 Z" id="Rectangle" fill="#206E2E"></path>
                    <path d="M1347.3282,286.077781 C1369.08222,383.572216 1394.04663,470.992678 1422.22145,548.339166 C1322.88919,713.772036 1384.70882,612.078556 1292.10377,741.384468 C1252.80865,796.252864 1511.70162,929.287914 1541.37179,1055.93409 C1552.66829,1104.15282 1473.22735,1141.84331 1303.04896,1169.00555 L1063.09873,1274.34648 L3212.39522,1274.34648 C3024.11518,1167.47064 2911.26186,1098.88826 2873.83527,1068.59935 C2855.334,1057.21511 2833.82674,1055.09836 2809.31352,1062.2491 C2763.76301,1080.98961 2723.74031,1098.25081 2689.24542,1114.03271 C2593.19228,1072.25074 2568.03263,1066.32667 2459.03428,1033.08177 C2386.36871,1010.91849 2276.00884,979.648912 2127.95467,939.273022 L2006.61678,704.125139 L1684.35923,481.243752 L1347.3282,286.077781 Z" id="Rectangle-Copy" fill="#34833B"></path>
                    <path d="M2250.11004,347.745773 C2283.76847,324.39628 2319.56277,316.831809 2357.49293,325.05236 C2494.99139,356.400814 2731.95035,419.910218 2934.85428,484.471088 C2937.4907,489.768155 2946.20431,495.925158 2941.97111,500.751686 C2878.94641,572.609923 2832.19423,619.540996 2743.33711,733.383515 C2742.91914,794.413936 2755.0262,846.999549 2751.81895,894.318639 C2663.68499,976.370241 2632.4419,1060.16306 2626.54424,1088.59003 C2530.4911,1046.80806 2568.09549,1065.3264 2459.09714,1032.08149 C2386.43157,1009.91822 2276.0717,978.648641 2128.01752,938.27275 L2006.67964,703.124867 L1883.37501,619.540996 L2250.11004,347.745773 Z" id="Rectangle-Copy-2" fill="#A4E3AA"></path>
                </g>
            </g>
            <g id="clouds" mask="url(#mask-2)" fill="#FFFFFF" fill-opacity="0.62">
                <g transform="translate(0.000000, 1759.753387)">
                    <path d="M0,929.977916 C62.3038672,928.136284 116.142419,949.09118 161.515656,992.842603 C271.712646,986.931279 397.072297,1047.71664 381.342069,1068.42796 C403.517833,1071.38598 424.116187,1072.60644 443.137129,1072.08935 C553.691854,1088.32539 569.932038,1105.92802 491.857681,1124.89722 C609.19953,1124.89722 665.8071,1135.29933 661.680391,1156.10354 C616.656494,1172.19702 396.096364,1185.39339 0,1195.69264 L0,929.977916 Z" id="Rectangle"></path>
                    <path d="M922.448533,558.877018 C1274.33962,558.877018 1559.60371,537.156923 1559.60371,510.363828 C1559.60371,497.53952 1494.25015,485.877429 1387.51796,477.20301 C1419.63236,372.877531 1270.50647,421.382118 1221.45934,426.37385 C1165.60497,341.259138 1078.19052,375.908241 1017.36213,386.147279 C983.465843,283.804131 836.070129,306.987929 772.403501,403.190299 C723.987441,377.994902 609.756788,391.672474 573.266361,447.518643 C496.376966,426.37385 404.300066,422.508683 399.478691,490.078486 C370.214012,486.903765 285.293361,494.974967 285.293361,510.363828 C285.293361,537.156923 570.557448,558.877018 922.448533,558.877018 Z" id="Oval"></path>
                </g>
            </g>
        </g>
        <g id="hiker" transform="translate(0.000000, 2962.000000)">
            <mask id="mask-7" fill="white">
                <use xlink:href="#path-6"></use>
            </mask>
            <g id="mask"></g>
            <g mask="url(#mask-7)">
                <g transform="translate(-0.995893, 0.000000)">
                    <path d="M211.366234,0 C234.32647,0 252.93942,21.490332 252.93942,48 C252.93942,61.3927663 248.188834,73.5044467 240.52712,82.2112203 C255.202837,82.890883 269.191161,85.7041926 282.491444,90.6492024 C283.602962,91.0383051 285.291706,92.8277278 287.557678,96.0174706 L287.565975,96 L287.63759,96.1302027 C293.608759,104.571737 303.540749,122.622005 317.433559,150.281006 L317.42219,150.292815 L338.898404,189.346757 L406.347247,226.604801 C422.13006,235.323064 427.993469,255.09514 419.515038,271.008075 L419.241549,271.521379 C410.681859,287.586825 390.729654,293.686816 374.649674,285.154459 L284.307885,237.217311 L273.07519,216.984815 L265.774307,295.462678 C303.83553,333.808059 329.291883,360.854711 342.143364,376.602633 L342.768911,377.262398 L342.723436,377.316342 C347.307811,382.980522 350.187614,387.116761 351.362846,389.725059 C355.944981,399.894608 352.306134,452.589773 340.446304,547.810552 L340.707409,553.379528 L340.742558,551.5 C343.063553,548.769051 357.295337,561.385127 383.437911,589.348227 C394.016088,600.66305 402.154057,603.773332 421.992758,614.51231 C428.922424,618.263439 437.128432,625.092364 445.281224,633.829154 C445.523285,634.088554 445.930564,634.462401 446.476215,634.94195 L446.819995,635.242294 C452.099338,639.831322 467.67833,652.4705 475.260785,667.200283 C481.005069,678.359209 485.3698,694.625781 488.354979,716 L348.364409,715.999528 L349.095361,731.5 L133.095361,731.5 L133.093749,718.001689 C53.5059733,718.320593 9.74222452,718.48643 1.80250279,718.499201 L0.99589305,718.5 C0.99589305,712.075452 0.706861057,703.561933 0.692409458,693.137889 L0.69242846,691.519141 C0.699830036,686.345526 0.779261576,680.720631 0.99589305,674.665091 C4.14967724,670.707148 23.3246804,667.179037 58.5209026,664.080757 C66.1460883,661.751657 71.5976792,659.591441 74.8756752,657.600108 C87.1689612,650.132123 95.8376739,640.751324 101.133188,635.710354 C104.998542,632.030799 109.35022,627.863383 113.651366,621.590682 C116.283543,617.75197 120.325941,610.631782 125.778561,600.230117 C126.427008,599.332613 127.038606,598.521802 127.613353,597.797684 L127.602608,597.798601 C137.159612,525.537675 141.938114,472.221208 141.938114,437.849199 C141.938114,404.663972 138.189659,358.047921 130.692748,298.001046 L97.1930184,298 L97.1930015,297.925592 C95.4336773,297.947944 94.0484518,297.972746 93.0373251,298 C92.971118,291.716557 92.9395996,279.252068 92.9291389,264.255494 L92.9281918,262.796431 L92.9277668,262.061201 L92.9277668,262.061201 L92.9263814,259.084431 L92.9263358,243.496794 L92.9276908,239.967034 C92.9285651,237.999602 92.9296375,236.022621 92.9308854,234.042136 L92.9324657,231.664261 C92.9335735,230.078406 92.9347878,228.491856 92.936097,226.907709 L92.9381307,224.533676 L92.938939,223.632971 L92.938939,223.632971 L92.9406118,221.834638 C92.9676734,193.397525 93.0216456,166.822113 93.0345207,160.313465 L93.0352785,159.929244 L93.0352785,159.929244 L93.0361028,159.506707 C93.0362234,159.444259 93.0363355,159.385831 93.0364389,159.331471 L93.0373251,158.809169 C93.0373251,155.883287 93.2287461,150.880249 94.0494988,150.281006 C96.7075408,148.340331 106.045889,150.039709 106.926635,148.170602 C107.990979,145.911867 107.221033,143.026035 106.400126,140.155694 L106.185993,139.407684 C105.983385,138.697116 105.787191,137.990945 105.62468,137.298997 C104.568453,133.886678 104,130.259724 104,126.5 C104,106.341607 120.341607,90 140.5,90 C144.706484,90 148.74677,90.7115762 152.507054,92.0209235 C153.600238,92.2596378 154.356351,92.4107609 154.729628,92.2946907 C158.962751,90.9784051 163.017941,86.2138312 184.912238,85.0288836 C175.678275,76.2261169 169.793047,62.9065902 169.793047,48 C169.793047,21.490332 188.405997,0 211.366234,0 Z M209.770608,361.393308 L209.770986,462.124154 C209.770986,496.098907 202.298125,537.010615 187.352402,584.859278 L194.112071,583.438135 C215.709747,579.261144 231.445043,575.145511 241.317958,571.091236 C251.190874,567.03696 264.591597,559.187998 281.520126,547.544349 L282.092409,547.540308 L281.483781,418.472308 L209.770608,361.393308 Z" id="Combined-Shape" stroke="none" fill="#4D4D4D" fill-rule="evenodd"></path>
                    <path d="M102.537154,287.5 C101.037029,303.131536 100.582446,313.30634 101.173405,318.024411 C102.731791,330.466167 106.926635,338.556722 106.926635,347.036735 C106.926635,360.34034 105.008892,371.161429 101.173405,379.5" id="dangle" stroke="#4D4D4D" stroke-width="15" fill="none" stroke-linecap="round"></path>
                    <path d="M397.193368,203.494792 C400.862503,203.494792 403.873461,204.118216 404.180012,206.999095 L404.205712,207 L404.205712,599 L390.181023,599 L390.181023,207 L390.201237,206.999469 C390.475253,203.7363 393.50105,203.494792 397.193368,203.494792 Z" id="stick" stroke="none" fill="#4D4D4D" fill-rule="nonzero" transform="translate(397.193368, 401.247396) rotate(2.000000) translate(-397.193368, -401.247396) "></path>
                </g>
            </g>
        </g>
    </g>
</svg>